<svg width="140" height="123" viewBox="0 0 140 123" fill="none" xmlns="http://www.w3.org/2000/svg">
<path d="M101.692 74.0456L99.5407 43.1699L107.988 29.6712V0H87.3319V9.19351H80.3282V0H59.672V9.19351H52.6685V0H32.0119V29.6712L40.4592 43.1699L38.3084 74.0456L30.2612 87.7625V110H109.739V87.7625L101.692 74.0456ZM47.1032 45.7049H92.8965L94.7057 71.6767H45.294L47.1032 45.7049ZM94.1857 38.9008H45.8143L41.5565 32.0966H98.4439L94.1857 38.9008ZM45.8642 6.80412V15.9976H66.4759V6.80412H73.5238V15.9976H94.1358V6.80412H101.184V25.2925H38.816V6.80412H45.8642ZM43.5952 78.4806H96.405L100.397 85.2847H39.6035L43.5952 78.4806ZM37.0653 103.196V92.0888H102.935V103.196H37.0653Z" fill="#6F32FE"/>
<path d="M15 8.625L24.75 31.05H19.5V58.65H10.5V31.05H5.25L15 8.625Z" fill="#6F32FE"/>
<path d="M125 115L115.25 94.2L120.5 94.2L120.5 68.6L129.5 68.6L129.5 94.2L134.75 94.2L125 115Z" fill="#6F32FE"/>
</svg>
