<svg width="35" height="32" viewBox="0 0 35 32" fill="none" xmlns="http://www.w3.org/2000/svg">
<g clip-path="url(#clip0_61_86)">
<path d="M32.7347 0.20686C25.2927 4.49215 18.738 0.481642 18.4446 0.272284C18.1727 0.0694688 17.2997 -0.152974 16.5841 0.272284C16.5125 0.272284 9.80757 4.49215 2.294 0.20686C1.29219 -0.401586 -0.17475 0.42276 0.0542348 1.50226C0.204506 2.52288 3.99707 25.8663 16.7272 31.8591C17.5072 32.1405 18.1441 31.9246 18.2872 31.8591C31.0889 25.8663 34.8886 2.52288 34.9602 1.50226C35.089 0.429302 33.8796 -0.375416 32.7347 0.20686ZM17.5859 29.1964C8.88448 24.5578 4.79137 9.74572 3.4747 3.74631C10.0509 6.16047 15.6682 3.84445 17.5501 2.85C19.518 3.83791 25.0923 6.14084 31.6184 3.74631C30.3017 9.74572 26.2802 24.5578 17.5859 29.1964Z" fill="white"/>
</g>
<defs>
<clipPath id="clip0_61_86">
<rect width="35" height="32" fill="white"/>
</clipPath>
</defs>
</svg>
