<svg width="36" height="32" viewBox="0 0 36 32" fill="none" xmlns="http://www.w3.org/2000/svg">
<path d="M34.4813 18.5601L25.7625 27.1861C24.75 28.2296 23.2313 28.967 21.6281 28.967H15.075C14.2453 28.967 13.5 29.287 12.9516 29.8296L10.7719 31.8609H0.84375L10.3922 22.2887L10.3781 22.2748C11.3906 21.2731 12.8109 20.647 14.3719 20.6331H23.7937C24.7922 20.6331 25.5938 21.4261 25.5938 22.414C25.5938 23.4018 24.7922 24.1948 23.7937 24.1948H16.2C15.8766 24.167 15.6094 24.4314 15.6094 24.7792C15.6094 25.127 15.8766 25.3774 16.2141 25.3774H23.7656C24.5672 25.4053 25.3266 25.0714 25.8891 24.5148C26.4516 23.9583 26.7609 23.1931 26.7609 22.414C26.7891 22.0522 26.6906 21.6627 26.5641 21.3287L31.9219 16.0279C32.6391 15.3183 33.7641 15.3183 34.4672 16.0001C35.1984 16.7096 35.1844 17.8644 34.4813 18.5601ZM9.70312 9.60005C9.70312 4.4244 13.8938 0.222656 19.125 0.222656C24.3563 0.222656 28.575 4.39657 28.575 9.57222C28.575 14.7479 24.3422 18.9218 19.1391 18.9218C13.9359 18.9218 9.70312 14.7479 9.70312 9.60005ZM20.3766 11.7566C20.3766 12.3966 19.8422 12.8696 18.7594 12.8696C17.7469 12.8696 16.8047 12.5218 16.2 12.2296L15.7219 14.1218C16.2703 14.4279 17.4094 14.7201 18.5344 14.7201V16.1392H19.8422V14.6783C21.7547 14.2609 22.6547 13.134 22.6547 11.6731C22.6547 10.2122 21.825 9.30788 20.0391 8.66788C18.7453 8.13918 18.1406 7.88875 18.1406 7.23483C18.1406 6.76179 18.6609 6.28875 19.6172 6.28875C20.5734 6.28875 21.2766 6.58092 21.7125 6.76179L22.2469 4.91135C21.6703 4.60527 20.8828 4.38266 19.8 4.38266V2.9357H18.4922V4.48005C16.7484 4.82788 15.7922 5.94092 15.7922 7.37396C15.7922 8.91831 16.875 9.78092 18.6047 10.3792C19.8563 10.8522 20.3766 11.1166 20.3766 11.7566Z" fill="white"/>
</svg>
