<svg width="198" height="142" viewBox="0 0 198 142" fill="none" xmlns="http://www.w3.org/2000/svg">
<g clip-path="url(#clip0_111_119)">
<path d="M52.875 5.00004L46 11.875L61.125 33.0569C61.7617 33.9489 62.6025 34.6757 63.5772 35.1768C64.5518 35.6779 65.6322 35.9387 66.7281 35.9375H67.2094C68.1133 35.9368 69.0085 36.1144 69.8437 36.46C70.6789 36.8057 71.4378 37.3126 72.0769 37.9519L90.4675 56.3425L72.4756 74.5888C69.3983 73.6829 66.1523 73.5066 62.995 74.0739C59.8377 74.6411 56.856 75.9362 54.2864 77.8566C51.7169 79.7769 49.6301 82.2696 48.1918 85.1369C46.7534 88.0042 46.003 91.1672 46 94.375C46.0041 97.3309 46.6435 100.251 47.8749 102.938C49.1063 105.626 50.9008 108.017 53.137 109.95C55.3731 111.883 57.9987 113.312 60.8357 114.142C63.6727 114.972 66.6549 115.182 69.5802 114.758C72.5055 114.335 75.3057 113.288 77.7909 111.687C80.2761 110.087 82.3883 107.971 83.9844 105.484C85.5805 102.996 86.6233 100.194 87.042 97.2679C87.4607 94.3419 87.2456 91.36 86.4112 88.5244L104.657 70.5325L111.312 77.1875L109.216 83.4713C108.813 84.6825 108.755 85.9819 109.049 87.2241C109.343 88.4663 109.976 89.6021 110.879 90.5044L133.952 113.577C135.241 114.866 136.989 115.59 138.812 115.59C140.636 115.59 142.384 114.866 143.673 113.577L154.577 102.673C155.866 101.384 156.59 99.6355 156.59 97.8125C156.59 95.9895 155.866 94.2412 154.577 92.9519L131.504 69.8794C130.602 68.9765 129.466 68.3427 128.224 68.0488C126.982 67.755 125.682 67.8127 124.471 68.2157L118.188 70.3125L111.588 63.7125L130.013 45.5419C133.069 46.3578 136.272 46.4609 139.375 45.8431C142.477 45.2254 145.397 43.9033 147.908 41.9789C150.419 40.0546 152.454 37.5792 153.857 34.7438C155.26 31.9084 155.993 28.7886 156 25.625C156 23.7757 155.759 21.9813 155.299 20.2832L140.586 35.0025L128.5 32.5L125.997 20.4207L140.717 5.70129C137.215 4.75983 133.528 4.75807 130.025 5.69619C126.523 6.63431 123.33 8.47914 120.768 11.0447C118.205 13.6103 116.365 16.806 115.432 20.3097C114.498 23.8133 114.505 27.5011 115.451 31.0013L97.3013 49.4125L78.9519 31.0769C77.6625 29.7879 76.9379 28.0395 76.9375 26.2163V25.7282C76.9376 24.6334 76.6763 23.5544 76.1752 22.581C75.6742 21.6076 74.9479 20.768 74.0569 20.1319L52.875 5.00004ZM119.191 78.1913C119.511 77.8712 119.89 77.6172 120.308 77.4439C120.725 77.2706 121.173 77.1814 121.625 77.1814C122.077 77.1814 122.525 77.2706 122.942 77.4439C123.36 77.6172 123.739 77.8712 124.059 78.1913L144.684 98.8163C145.003 99.1359 145.257 99.5153 145.43 99.9329C145.603 100.35 145.692 100.798 145.692 101.25C145.692 101.702 145.603 102.15 145.43 102.567C145.257 102.985 145.003 103.364 144.684 103.684C144.364 104.003 143.985 104.257 143.567 104.43C143.15 104.603 142.702 104.692 142.25 104.692C141.798 104.692 141.35 104.603 140.933 104.43C140.515 104.257 140.136 104.003 139.816 103.684L119.191 83.0588C118.871 82.7395 118.617 82.3601 118.444 81.9425C118.271 81.5249 118.181 81.0772 118.181 80.625C118.181 80.1729 118.271 79.7252 118.444 79.3076C118.617 78.8899 118.871 78.5106 119.191 78.1913ZM66.625 80.625L69.8631 82.2888L73.5 82.4675L75.4731 85.5269L78.5325 87.5L78.7113 91.1369L80.375 94.375L78.7113 97.6132L78.5325 101.25L75.4731 103.223L73.5 106.283L69.8631 106.461L66.625 108.125L63.3869 106.461L59.75 106.283L57.7769 103.223L54.7175 101.25L54.5387 97.6132L52.875 94.375L54.5387 91.1369L54.7175 87.5L57.7769 85.5269L59.75 82.4675L63.3869 82.2888L66.625 80.625Z" fill="#FF9064"/>
</g>
<rect x="1" y="11.2162" width="15.027" height="41.7027" stroke="#FF9064" stroke-width="2"/>
<rect x="7.37837" width="1.7027" height="10.7838" fill="#FF9064"/>
<rect x="7.37837" y="52.2162" width="1.7027" height="10.7838" fill="#FF9064"/>
<rect x="161" y="80.2162" width="15.027" height="41.7027" stroke="#FF9064" stroke-width="2"/>
<rect x="167.378" y="69" width="1.7027" height="10.7838" fill="#FF9064"/>
<rect x="167.378" y="121.216" width="1.7027" height="10.7838" fill="#FF9064"/>
<rect x="22" y="33" width="15" height="10" stroke="#FF9064" stroke-width="2"/>
<rect x="28.3784" y="22" width="1.7027" height="10.7838" fill="#FF9064"/>
<rect x="28" y="44" width="2" height="41" fill="#FF9064"/>
<rect x="182" y="128" width="15" height="10" stroke="#FF9064" stroke-width="2"/>
<rect x="188.378" y="117" width="1.7027" height="10.7838" fill="#FF9064"/>
<rect x="188" y="139" width="2" height="3" fill="#FF9064"/>
<defs>
<clipPath id="clip0_111_119">
<rect width="110" height="110" fill="white" transform="translate(46 5)"/>
</clipPath>
</defs>
</svg>
