<svg width="31" height="31" viewBox="0 0 31 31" fill="none" xmlns="http://www.w3.org/2000/svg">
<g clip-path="url(#clip0_61_56)">
<path d="M9.15239 2.32293C9.22424 2.34664 9.29719 2.35793 9.3689 2.35793C9.65824 2.35793 9.92768 2.17432 10.0235 1.88466C10.1211 1.58941 10.3959 1.39102 10.7074 1.39102H14.5247C14.9055 1.39102 15.2143 1.08231 15.2143 0.701491C15.2143 0.320674 14.9055 0.0119629 14.5247 0.0119629H10.7074C9.79989 0.0119629 8.99886 0.590575 8.71418 1.45176C8.5946 1.81334 8.79082 2.20335 9.15239 2.32293Z" fill="white"/>
<path d="M18.4649 1.39102H24.0468C24.4276 1.39102 24.7363 1.08231 24.7363 0.701491C24.7363 0.320674 24.4276 0.0119629 24.0468 0.0119629H18.4649C18.0841 0.0119629 17.7754 0.320674 17.7754 0.701491C17.7754 1.08231 18.0841 1.39102 18.4649 1.39102Z" fill="white"/>
<path d="M30.3105 26.8586C29.9296 26.8586 29.6209 27.1674 29.6209 27.5482V28.8889C29.6209 29.2859 29.298 29.6088 28.9011 29.6088H26.8747C26.4939 29.6088 26.1852 29.9175 26.1852 30.2983C26.1852 30.6792 26.4939 30.9879 26.8747 30.9879H28.9011C30.0584 30.9879 31 30.0462 31 28.8889V27.5482C31 27.1674 30.6913 26.8586 30.3105 26.8586Z" fill="white"/>
<path d="M30.3105 17.3367C29.9297 17.3367 29.6209 17.6454 29.6209 18.0262V23.6081C29.6209 23.9889 29.9297 24.2976 30.3105 24.2976C30.6913 24.2976 31 23.9889 31 23.6081V18.0262C31 17.6454 30.6913 17.3367 30.3105 17.3367Z" fill="white"/>
<path d="M30.3105 7.81458C29.9297 7.81458 29.6209 8.12329 29.6209 8.5041V14.086C29.6209 14.4668 29.9297 14.7755 30.3105 14.7755C30.6913 14.7755 31 14.4668 31 14.086V8.5041C31 8.12329 30.6913 7.81458 30.3105 7.81458Z" fill="white"/>
<path d="M22.9345 29.6088L17.3526 29.6088C16.9718 29.6088 16.6631 29.9175 16.6631 30.2983C16.6631 30.6791 16.9718 30.9878 17.3526 30.9878L22.9345 30.9879C23.3152 30.9879 23.624 30.6792 23.624 30.2984C23.624 29.9175 23.3154 29.6088 22.9345 29.6088Z" fill="white"/>
<path d="M28.901 0.0119629H27.9869C27.6061 0.0119629 27.2974 0.320674 27.2974 0.701491C27.2974 1.08231 27.6061 1.39102 27.9869 1.39102H28.901C29.298 1.39102 29.6209 1.71398 29.6209 2.11095V4.56396C29.6209 4.94478 29.9296 5.25349 30.3104 5.25349C30.6912 5.25349 30.9999 4.94478 30.9999 4.56396V2.11095C31 0.953595 30.0584 0.0119629 28.901 0.0119629Z" fill="white"/>
<path d="M16.6497 18.7832C16.3805 19.0525 16.3805 19.4891 16.6497 19.7584C16.7844 19.893 16.9609 19.9604 17.1373 19.9604C17.3138 19.9604 17.4903 19.893 17.6249 19.7584L25.6089 11.7744C25.8782 11.5052 25.8782 11.0685 25.6089 10.7992C25.3396 10.53 24.9031 10.53 24.6338 10.7992L16.6497 18.7832Z" fill="white"/>
<path d="M18.2209 14.7811C19.5501 14.7811 20.6316 13.6996 20.6316 12.3704C20.6316 11.0412 19.5501 9.95984 18.2208 9.95984C16.8917 9.95984 15.8103 11.0412 15.8103 12.3704C15.8103 13.6996 16.8917 14.7811 18.2209 14.7811ZM18.2209 11.3389C18.7898 11.3389 19.2525 11.8016 19.2525 12.3704C19.2525 12.9392 18.7898 13.402 18.2209 13.402C17.6521 13.402 17.1894 12.9392 17.1894 12.3704C17.1894 11.8016 17.6521 11.3389 18.2209 11.3389Z" fill="white"/>
<path d="M24.0377 15.7766C22.7085 15.7766 21.627 16.8579 21.627 18.1871C21.627 19.5164 22.7085 20.5979 24.0377 20.5979C25.3669 20.5979 26.4483 19.5164 26.4483 18.1871C26.4483 16.8579 25.3669 15.7766 24.0377 15.7766ZM24.0377 19.2189C23.4688 19.2189 23.0061 18.756 23.0061 18.1871C23.0061 17.6184 23.4688 17.1557 24.0377 17.1557C24.6065 17.1557 25.0692 17.6184 25.0692 18.1871C25.0692 18.756 24.6065 19.2189 24.0377 19.2189Z" fill="white"/>
<path d="M13.477 23.1163C13.1886 23.1163 12.909 23.1783 12.6461 23.3005C11.6597 23.7591 11.2302 24.9348 11.6888 25.9213C12.0112 26.6147 12.7137 27.0628 13.4787 27.0628C13.7671 27.0628 14.0466 27.0009 14.3094 26.8786C14.7873 26.6565 15.1501 26.2616 15.3309 25.7664C15.5117 25.2715 15.489 24.7357 15.2669 24.2577C14.9445 23.5645 14.2419 23.1163 13.477 23.1163ZM14.0356 25.2934C13.9811 25.4424 13.872 25.5613 13.7281 25.6281C13.6486 25.6651 13.5647 25.6838 13.4786 25.6838C13.2481 25.6838 13.0364 25.5488 12.9393 25.34C12.8012 25.0431 12.9305 24.6892 13.2274 24.5511C13.3069 24.5142 13.3908 24.4955 13.477 24.4955C13.7075 24.4955 13.9192 24.6304 14.0163 24.8392C14.0831 24.983 14.0899 25.1443 14.0356 25.2934Z" fill="white"/>
<path d="M17.795 23.0826C17.0271 21.4306 15.3645 20.3558 13.5457 20.3285L11.4004 15.7136L15.6056 6.66753C16.0711 5.66607 15.6351 4.47253 14.6336 4.0068L14.5146 3.95151C14.0293 3.726 13.4855 3.70289 12.983 3.88643C12.4805 4.07004 12.0795 4.43832 11.854 4.92348L9.11917 10.8065L6.38443 4.92348C6.0572 4.21944 5.3439 3.76455 4.56736 3.76455C4.27454 3.76455 3.99079 3.82746 3.72391 3.95151L3.60472 4.00694C2.60326 4.4726 2.16728 5.66614 2.63281 6.66753L6.83808 15.7137L4.69273 20.3285C2.88432 20.3555 1.21718 21.418 0.443459 23.0826C-0.663135 25.4631 0.373193 28.3002 2.75371 29.4069C3.40127 29.7079 4.0822 29.8503 4.75334 29.8503C6.54926 29.8501 8.2723 28.8294 9.07793 27.0965C9.09231 27.0655 9.10557 27.0344 9.11923 27.0033C9.13289 27.0344 9.14616 27.0656 9.16054 27.0965C9.93853 28.7699 11.6342 29.8513 13.4805 29.8514C13.4806 29.8514 13.4807 29.8514 13.4809 29.8514C14.1759 29.8514 14.8501 29.7019 15.4848 29.4068C17.8653 28.3002 18.9017 25.4631 17.795 23.0826ZM13.1046 5.50479C13.1748 5.35368 13.2997 5.23896 13.4562 5.18183C13.6127 5.12456 13.7821 5.13165 13.9333 5.20218L14.0523 5.25748C14.3643 5.40247 14.5001 5.77423 14.3551 6.08622L10.64 14.0779L9.87962 12.4422L13.1046 5.50479ZM7.82739 26.5151C7.04126 28.2061 5.026 28.9423 3.33501 28.1562C1.64409 27.3701 0.907873 25.3549 1.69394 23.6638C2.29337 22.3743 3.64727 21.5934 5.06356 21.7205C5.35297 21.7465 5.62792 21.5881 5.75053 21.3244L7.59846 17.3493L8.35885 18.985L7.00107 21.9058C6.87853 22.1695 6.93448 22.4817 7.14108 22.6863C8.15101 23.6869 8.42682 25.2256 7.82739 26.5151ZM9.11923 23.1784C8.94751 22.7851 8.7222 22.4123 8.44435 22.0726L9.11923 20.6208L9.79412 22.0726C9.51627 22.4123 9.29096 22.785 9.11923 23.1784ZM14.9035 28.1562C14.4522 28.366 13.9736 28.4724 13.4809 28.4724C13.4808 28.4724 13.4807 28.4724 13.4806 28.4724C12.1687 28.4723 10.9638 27.7041 10.4111 26.5152C9.81172 25.2256 10.0875 23.6869 11.0975 22.6863C11.3041 22.4816 11.3601 22.1694 11.2375 21.9058L3.88335 6.08609C3.73835 5.77416 3.87416 5.40241 4.18602 5.25748L4.30515 5.20205C4.38861 5.16324 4.47681 5.14354 4.5673 5.14354C4.80949 5.14354 5.03184 5.28532 5.13383 5.50472L12.4879 21.3243C12.6105 21.5881 12.8857 21.7461 13.1748 21.7205C13.2743 21.7115 13.3753 21.707 13.4753 21.707C14.7872 21.707 15.9919 22.4751 16.5444 23.6637C17.3305 25.3549 16.5944 27.3702 14.9035 28.1562Z" fill="white"/>
<path d="M5.59233 23.3004C4.60585 22.8419 3.43023 23.2713 2.9716 24.2578C2.74951 24.7356 2.72672 25.2714 2.90757 25.7664C3.08836 26.2615 3.45118 26.6565 3.92899 26.8785C4.19732 27.0033 4.47956 27.0623 4.75767 27.0623C5.5019 27.0623 6.21586 26.6393 6.54972 25.9212C6.77188 25.4433 6.7946 24.9075 6.61382 24.4125C6.43296 23.9176 6.07021 23.5226 5.59233 23.3004ZM5.29918 25.3398C5.16115 25.6367 4.80732 25.7658 4.5103 25.628C4.36655 25.5612 4.25734 25.4423 4.2029 25.2933C4.14846 25.1442 4.15529 24.9829 4.22214 24.8391C4.28899 24.6953 4.40785 24.5861 4.55686 24.5317C4.62331 24.5074 4.69227 24.4953 4.76096 24.4953C4.84626 24.4953 4.9313 24.5139 5.01096 24.551C5.15478 24.6179 5.26398 24.7367 5.31842 24.8857C5.37286 25.0347 5.36603 25.196 5.29918 25.3398Z" fill="white"/>
</g>
<defs>
<clipPath id="clip0_61_56">
<rect width="31" height="31" fill="white"/>
</clipPath>
</defs>
</svg>
