<svg width="24" height="24" viewBox="0 0 24 24" fill="none" xmlns="http://www.w3.org/2000/svg">
<path d="M3.56115 13.4965L2.57019 12.5055C2.15059 12.0859 2.15059 11.4074 2.57019 10.9923L11.2433 2.3147C11.6629 1.8951 12.3414 1.8951 12.7566 2.3147L21.4297 10.9878C21.8493 11.4074 21.8493 12.0859 21.4297 12.5011L20.4387 13.492C20.0147 13.9161 19.3228 13.9072 18.9077 13.4742L13.7877 8.09977V20.9287C13.7877 21.5224 13.3101 22 12.7164 22H11.288C10.6943 22 10.2167 21.5224 10.2167 20.9287V8.09977L5.09223 13.4786C4.6771 13.9161 3.98521 13.925 3.56115 13.4965Z" fill="white"/>
</svg>
