<svg width="167" height="55" viewBox="0 0 167 55" fill="none" xmlns="http://www.w3.org/2000/svg">
<g clip-path="url(#clip0_111_171)">
<path d="M50.4237 14.7715H53.225L61.0286 33.5354H57.2268L55.326 28.6448H48.4227L46.5218 33.5354H42.72L50.4237 14.7715ZM54.0254 25.3511L51.9244 19.8617L49.8234 25.3511H54.0254Z" fill="white"/>
<path d="M63.0296 14.7715H68.232C76.836 14.7715 78.3368 20.5604 78.3368 24.2533C78.3368 26.2494 77.8365 33.5354 68.3321 33.5354H63.0296V14.7715ZM68.232 30.2417C70.1329 30.2417 74.8351 30.0421 74.8351 24.353C74.8351 18.4644 69.9328 18.2648 68.0319 18.2648H66.5312V30.2417H68.232Z" fill="white"/>
<path d="M80.8379 14.7715H86.2405C92.5434 14.7715 93.3438 18.9634 93.3438 20.76C93.3438 23.7542 91.3429 26.3492 88.2414 26.6487L93.5439 33.5354H89.2419L84.3396 26.6487H84.2395V33.5354H80.7379V14.7715H80.8379ZM84.3396 23.7542H86.4406C87.241 23.7542 89.9422 23.6545 89.9422 20.9597C89.9422 18.2648 87.241 18.165 86.4406 18.165H84.3396V23.7542Z" fill="white"/>
<path d="M114.454 24.3531C114.454 29.7428 110.152 34.1344 104.549 34.1344C98.9465 34.1344 94.6444 29.8426 94.6444 24.3531C94.6444 18.9635 98.9465 14.572 104.549 14.572C110.152 14.572 114.454 18.8637 114.454 24.3531ZM110.952 24.2534C110.952 20.7601 108.251 17.8656 104.549 17.8656C100.847 17.8656 98.1461 20.7601 98.1461 24.2534C98.1461 27.8464 100.947 30.7409 104.549 30.7409C108.251 30.6411 110.952 27.7466 110.952 24.2534Z" fill="white"/>
<path d="M32.5153 0H27.813V40.1228H32.5153V0Z" fill="#1976D2"/>
<path d="M25.512 18.4646H20.8098V52.0999H25.512V18.4646Z" fill="#1E88E5"/>
<path d="M18.6087 15.9692H13.9065V40.1227H18.6087V15.9692Z" fill="#2196F3"/>
<path d="M11.6054 9.18237H6.90323V27.6469H11.6054V9.18237Z" fill="#42A5F5"/>
<path d="M4.70219 21.3589H0V33.9348H4.70219V21.3589Z" fill="#64B5F6"/>
<path d="M119.261 14.8093H128.865V18.2028H122.763V22.4946H128.565V25.888H122.763V33.5732H119.261V14.8093Z" fill="#F44336"/>
<path d="M136.369 24.1913L129.866 14.8093H133.968L138.47 21.2969L142.972 14.8093H147.074L140.571 24.1913L147.074 33.5732H142.872L138.37 27.0857L133.868 33.5732H129.866L136.369 24.1913Z" fill="#F44336"/>
</g>
<path d="M46.7324 50H46.0723V41.3101H43.0635V40.7197H49.7412V41.3101H46.7324V50ZM51.6011 40.123V43.3477C51.6011 43.5339 51.5968 43.7074 51.5884 43.8682C51.5841 44.029 51.5757 44.1919 51.563 44.3569H51.6074C51.7217 44.0946 51.8846 43.8597 52.0962 43.6523C52.312 43.445 52.5765 43.2799 52.8896 43.1572C53.207 43.0345 53.5731 42.9731 53.9878 42.9731C54.5125 42.9731 54.9526 43.0641 55.3081 43.2461C55.6678 43.4238 55.9408 43.6968 56.127 44.0649C56.3132 44.4331 56.4062 44.9071 56.4062 45.4868V50H55.7715V45.5249C55.7715 44.8394 55.6149 44.3358 55.3018 44.0142C54.9886 43.6925 54.5337 43.5317 53.937 43.5317C53.4292 43.5317 53.0018 43.6312 52.6548 43.8301C52.3078 44.0247 52.0454 44.321 51.8677 44.7188C51.6899 45.1123 51.6011 45.6053 51.6011 46.1978V50H50.96V40.123H51.6011ZM61.2559 42.9668C61.8441 42.9668 62.3328 43.1043 62.7222 43.3794C63.1157 43.6545 63.4077 44.0311 63.5981 44.5093C63.7928 44.9875 63.8901 45.5355 63.8901 46.1533V46.6167H58.9072C58.9072 47.5646 59.1252 48.2925 59.561 48.8003C60.0011 49.3081 60.6296 49.562 61.4463 49.562C61.8737 49.562 62.244 49.5282 62.5571 49.4604C62.8745 49.3885 63.2257 49.2679 63.6108 49.0986V49.689C63.2723 49.8413 62.9338 49.9513 62.5952 50.019C62.2567 50.091 61.8674 50.127 61.4272 50.127C60.729 50.127 60.1429 49.9831 59.6689 49.6953C59.1992 49.4033 58.8438 48.9928 58.6025 48.4639C58.3656 47.9349 58.2471 47.3171 58.2471 46.6104C58.2471 45.9206 58.3613 45.3006 58.5898 44.7505C58.8226 44.2004 59.1611 43.7666 59.6055 43.4492C60.054 43.1276 60.6042 42.9668 61.2559 42.9668ZM61.2495 43.519C60.5894 43.519 60.054 43.7391 59.6436 44.1792C59.2373 44.6151 58.9982 45.2456 58.9263 46.0708H63.2236C63.2236 45.5672 63.1517 45.1229 63.0078 44.7378C62.8639 44.3527 62.646 44.0544 62.354 43.8428C62.0662 43.627 61.6981 43.519 61.2495 43.519ZM75.1382 50L73.875 46.7183H69.9775L68.689 50H68.0225L71.6724 40.688H72.269L75.8237 50H75.1382ZM73.6655 46.1279L72.3833 42.6494C72.3494 42.5605 72.3071 42.4463 72.2563 42.3066C72.2098 42.167 72.159 42.0189 72.104 41.8623C72.0532 41.7057 72.0024 41.5576 71.9517 41.418C71.9093 41.5661 71.8628 41.7142 71.812 41.8623C71.7612 42.0104 71.7126 42.1543 71.666 42.2939C71.6195 42.4294 71.575 42.5521 71.5327 42.6621L70.1997 46.1279H73.6655ZM79.7212 42.9795C79.9032 42.9795 80.0745 42.9901 80.2354 43.0112C80.3962 43.0324 80.5464 43.062 80.686 43.1001L80.5845 43.6904C80.4448 43.6523 80.3031 43.6248 80.1592 43.6079C80.0153 43.5868 79.8608 43.5762 79.6958 43.5762C79.37 43.5762 79.078 43.6375 78.8198 43.7603C78.5659 43.883 78.3501 44.0586 78.1724 44.2871C77.9946 44.5156 77.8592 44.7907 77.7661 45.1123C77.673 45.4339 77.6265 45.7936 77.6265 46.1914V50H76.979V43.1001H77.5312L77.5947 44.4014H77.6328C77.7386 44.1348 77.8867 43.8957 78.0771 43.6841C78.2718 43.4683 78.5067 43.2969 78.7817 43.1699C79.0568 43.043 79.37 42.9795 79.7212 42.9795ZM83.9043 49.5747C84.1032 49.5747 84.2873 49.5599 84.4565 49.5303C84.63 49.5007 84.7824 49.4626 84.9136 49.416V49.9492C84.7782 49.9958 84.6195 50.036 84.4375 50.0698C84.2555 50.1079 84.0545 50.127 83.8345 50.127C83.4451 50.127 83.1214 50.055 82.8633 49.9111C82.6051 49.763 82.4105 49.5409 82.2793 49.2446C82.1481 48.9442 82.0825 48.5633 82.0825 48.1021V43.6333H81.0542V43.2524L82.0762 43.0557L82.2983 41.4307H82.7236V43.1001H84.8755V43.6333H82.7236V48.064C82.7236 48.5591 82.8146 48.9357 82.9966 49.1938C83.1828 49.4478 83.4854 49.5747 83.9043 49.5747ZM95.4951 46.5405C95.4951 47.0737 95.4295 47.5604 95.2983 48.0005C95.1672 48.4364 94.9725 48.813 94.7144 49.1304C94.4562 49.4478 94.1346 49.6932 93.7495 49.8667C93.3687 50.0402 92.9243 50.127 92.4165 50.127C91.9341 50.127 91.5046 50.0423 91.1279 49.873C90.7513 49.6995 90.4318 49.4541 90.1694 49.1367C89.9113 48.8193 89.7145 48.4427 89.5791 48.0068C89.4437 47.5667 89.376 47.078 89.376 46.5405C89.376 45.8 89.4987 45.1631 89.7441 44.6299C89.9938 44.0924 90.3493 43.682 90.8105 43.3984C91.276 43.1107 91.8325 42.9668 92.48 42.9668C93.1486 42.9668 93.7051 43.1191 94.1494 43.4238C94.598 43.7243 94.9344 44.1432 95.1587 44.6807C95.383 45.2181 95.4951 45.8381 95.4951 46.5405ZM90.0361 46.5405C90.0361 47.1457 90.1229 47.6746 90.2964 48.1274C90.4699 48.5802 90.7323 48.9336 91.0835 49.1875C91.439 49.4414 91.8875 49.5684 92.4292 49.5684C92.9836 49.5684 93.4385 49.4414 93.7939 49.1875C94.1494 48.9336 94.4118 48.5781 94.5811 48.1211C94.7503 47.6641 94.835 47.1372 94.835 46.5405C94.835 45.9608 94.7546 45.4445 94.5938 44.9917C94.4329 44.5389 94.179 44.1834 93.832 43.9253C93.485 43.6629 93.0322 43.5317 92.4736 43.5317C91.6738 43.5317 91.0666 43.7983 90.6519 44.3315C90.2414 44.8647 90.0361 45.6011 90.0361 46.5405ZM99.9702 43.6333H98.3452V50H97.7041V43.6333H96.4219V43.2524L97.7041 43.0874V42.3257C97.7041 41.8179 97.776 41.3968 97.9199 41.0625C98.068 40.724 98.2902 40.4722 98.5864 40.3071C98.8869 40.1379 99.2656 40.0532 99.7227 40.0532C99.9596 40.0532 100.173 40.0723 100.364 40.1104C100.554 40.1442 100.732 40.1886 100.897 40.2437L100.751 40.7832C100.603 40.7324 100.438 40.6901 100.256 40.6562C100.078 40.6224 99.9025 40.6055 99.729 40.6055C99.2424 40.6055 98.889 40.7409 98.6689 41.0117C98.4531 41.2783 98.3452 41.7142 98.3452 42.3193V43.1001H99.9702V43.6333ZM107.276 50H106.616V41.3101H103.607V40.7197H110.285V41.3101H107.276V50ZM114.252 42.9795C114.434 42.9795 114.606 42.9901 114.767 43.0112C114.927 43.0324 115.078 43.062 115.217 43.1001L115.116 43.6904C114.976 43.6523 114.834 43.6248 114.69 43.6079C114.547 43.5868 114.392 43.5762 114.227 43.5762C113.901 43.5762 113.609 43.6375 113.351 43.7603C113.097 43.883 112.881 44.0586 112.704 44.2871C112.526 44.5156 112.39 44.7907 112.297 45.1123C112.204 45.4339 112.158 45.7936 112.158 46.1914V50H111.51V43.1001H112.062L112.126 44.4014H112.164C112.27 44.1348 112.418 43.8957 112.608 43.6841C112.803 43.4683 113.038 43.2969 113.313 43.1699C113.588 43.043 113.901 42.9795 114.252 42.9795ZM118.981 42.9795C119.739 42.9795 120.306 43.1699 120.683 43.5508C121.059 43.9316 121.248 44.5389 121.248 45.3726V50H120.752L120.638 48.7939H120.6C120.452 49.0521 120.272 49.2827 120.061 49.4858C119.849 49.6847 119.589 49.8413 119.28 49.9556C118.975 50.0698 118.603 50.127 118.163 50.127C117.718 50.127 117.337 50.0529 117.02 49.9048C116.707 49.7567 116.464 49.5409 116.29 49.2573C116.121 48.9738 116.036 48.6289 116.036 48.2227C116.036 47.5371 116.32 47.0166 116.887 46.6611C117.454 46.3014 118.268 46.0983 119.331 46.0518L120.613 45.9883V45.4868C120.613 44.7801 120.473 44.2765 120.194 43.9761C119.915 43.6756 119.502 43.5254 118.956 43.5254C118.601 43.5254 118.258 43.5719 117.928 43.665C117.602 43.7539 117.27 43.883 116.931 44.0522L116.728 43.519C117.058 43.3625 117.411 43.2334 117.788 43.1318C118.169 43.0303 118.567 42.9795 118.981 42.9795ZM120.606 46.4897L119.4 46.5405C118.524 46.5828 117.858 46.7394 117.401 47.0103C116.944 47.2811 116.715 47.6873 116.715 48.229C116.715 48.6649 116.851 48.9992 117.122 49.2319C117.397 49.4647 117.778 49.5811 118.264 49.5811C119.022 49.5811 119.599 49.3652 119.997 48.9336C120.399 48.502 120.602 47.9137 120.606 47.1689V46.4897ZM125.964 50.127C125.02 50.127 124.301 49.8307 123.806 49.2383C123.315 48.6416 123.069 47.7741 123.069 46.6357C123.069 45.4424 123.33 44.5326 123.85 43.9062C124.371 43.2799 125.096 42.9668 126.027 42.9668C126.425 42.9668 126.77 43.0282 127.062 43.1509C127.358 43.2736 127.606 43.4408 127.805 43.6523C128.008 43.8597 128.164 44.0967 128.274 44.3633H128.325C128.308 44.139 128.296 43.8978 128.287 43.6396C128.279 43.3815 128.274 43.1445 128.274 42.9287V40.123H128.916V50H128.395L128.312 48.7368H128.274C128.16 48.9907 128.001 49.2235 127.798 49.4351C127.599 49.6466 127.35 49.8159 127.049 49.9429C126.749 50.0656 126.387 50.127 125.964 50.127ZM126.034 49.5684C126.846 49.5684 127.424 49.3166 127.767 48.813C128.109 48.3052 128.281 47.5815 128.281 46.6421V46.5405C128.281 45.5672 128.109 44.8224 127.767 44.3062C127.424 43.7856 126.865 43.5254 126.091 43.5254C125.325 43.5254 124.739 43.792 124.333 44.3252C123.931 44.8584 123.729 45.6328 123.729 46.6484C123.729 47.6048 123.918 48.3306 124.294 48.8257C124.675 49.3208 125.255 49.5684 126.034 49.5684ZM131.848 43.1001V50H131.207V43.1001H131.848ZM131.537 40.5483C131.698 40.5483 131.816 40.597 131.893 40.6943C131.969 40.7874 132.007 40.9144 132.007 41.0752C132.007 41.236 131.969 41.363 131.893 41.4561C131.816 41.5492 131.698 41.5957 131.537 41.5957C131.385 41.5957 131.271 41.5492 131.194 41.4561C131.118 41.363 131.08 41.236 131.08 41.0752C131.08 40.9144 131.118 40.7874 131.194 40.6943C131.271 40.597 131.385 40.5483 131.537 40.5483ZM137.193 42.9668C137.967 42.9668 138.562 43.1699 138.977 43.5762C139.391 43.9824 139.599 44.6193 139.599 45.4868V50H138.964V45.5249C138.964 44.8394 138.807 44.3358 138.494 44.0142C138.181 43.6925 137.726 43.5317 137.129 43.5317C136.372 43.5317 135.792 43.7539 135.39 44.1982C134.992 44.6383 134.793 45.3049 134.793 46.1978V50H134.152V43.1001H134.673L134.768 44.3569H134.806C134.929 44.0988 135.096 43.866 135.308 43.6587C135.523 43.4471 135.788 43.2799 136.101 43.1572C136.414 43.0303 136.778 42.9668 137.193 42.9668ZM143.661 53.123C142.794 53.123 142.119 52.9559 141.636 52.6216C141.158 52.2873 140.919 51.8197 140.919 51.2188C140.919 50.7533 141.065 50.3512 141.357 50.0127C141.649 49.6784 142.045 49.4774 142.544 49.4097C142.345 49.3166 142.182 49.1896 142.055 49.0288C141.932 48.868 141.871 48.6818 141.871 48.4702C141.871 48.2332 141.945 48.0132 142.093 47.8101C142.241 47.6027 142.464 47.4123 142.76 47.2388C142.362 47.0949 142.049 46.8516 141.82 46.5088C141.592 46.1618 141.478 45.745 141.478 45.2583C141.478 44.7928 141.577 44.3887 141.776 44.0459C141.975 43.7031 142.256 43.4386 142.62 43.2524C142.988 43.062 143.422 42.9668 143.921 42.9668C144.074 42.9668 144.211 42.971 144.334 42.9795C144.461 42.988 144.577 43.0028 144.683 43.0239C144.789 43.0409 144.884 43.0641 144.969 43.0938H147.197V43.5508L145.775 43.646C145.961 43.8703 146.101 44.1136 146.194 44.376C146.287 44.6341 146.333 44.9071 146.333 45.1948C146.333 45.8804 146.118 46.4242 145.686 46.8262C145.254 47.2282 144.653 47.4292 143.883 47.4292C143.672 47.4292 143.464 47.4102 143.261 47.3721C143.003 47.5244 142.806 47.6789 142.671 47.8354C142.535 47.9878 142.468 48.1782 142.468 48.4067C142.468 48.5506 142.51 48.6691 142.595 48.7622C142.679 48.8511 142.802 48.9209 142.963 48.9717C143.124 49.0182 143.32 49.0415 143.553 49.0415H144.766C145.515 49.0415 146.088 49.1938 146.486 49.4985C146.884 49.8032 147.083 50.2518 147.083 50.8442C147.083 51.5679 146.784 52.1286 146.188 52.5264C145.595 52.9242 144.753 53.123 143.661 53.123ZM143.706 52.5835C144.311 52.5835 144.814 52.5179 145.216 52.3867C145.623 52.2555 145.927 52.0609 146.13 51.8027C146.333 51.5488 146.435 51.2336 146.435 50.8569C146.435 50.548 146.361 50.3089 146.213 50.1396C146.065 49.9704 145.855 49.854 145.584 49.7905C145.314 49.7228 144.994 49.689 144.626 49.689H143.471C143.103 49.689 142.775 49.7397 142.487 49.8413C142.199 49.9386 141.975 50.0952 141.814 50.311C141.657 50.5269 141.579 50.8146 141.579 51.1743C141.579 51.6356 141.759 51.9847 142.119 52.2217C142.483 52.4629 143.012 52.5835 143.706 52.5835ZM143.909 46.915C144.48 46.915 144.918 46.7712 145.223 46.4834C145.527 46.1956 145.68 45.7788 145.68 45.2329C145.68 44.6489 145.523 44.2109 145.21 43.9189C144.897 43.627 144.459 43.481 143.896 43.481C143.35 43.481 142.921 43.6375 142.607 43.9507C142.299 44.2596 142.144 44.6955 142.144 45.2583C142.144 45.783 142.292 46.1914 142.588 46.4834C142.885 46.7712 143.325 46.915 143.909 46.915Z" fill="white"/>
<defs>
<clipPath id="clip0_111_171">
<rect width="147" height="52" fill="white"/>
</clipPath>
</defs>
</svg>
