<svg
  aria-hidden="true"
  style="position: absolute; width: 0; height: 0; overflow: hidden;"
  version="1.1"
  xmlns="http://www.w3.org/2000/svg"
  xmlns:xlink="http://www.w3.org/1999/xlink"
>
<defs>
<symbol id="icon-verified" viewBox="0 0 60 60">
<path
        stroke-linejoin="miter"
        stroke-linecap="butt"
        stroke-miterlimit="4"
        stroke-width="3.75"
        d="M28.821 4c0.601-0.764 1.758-0.764 2.359 0l4.522 5.752c0.376 0.478 1.003 0.682 1.588 0.516l7.039-1.995c0.935-0.265 1.871 0.415 1.908 1.386l0.278 7.311c0.023 0.608 0.411 1.141 0.982 1.351l6.867 2.523c0.912 0.335 1.27 1.436 0.729 2.243l-4.072 6.078c-0.338 0.505-0.338 1.165 0 1.67l4.072 6.078c0.541 0.807 0.183 1.908-0.729 2.243l-6.867 2.524c-0.571 0.21-0.958 0.743-0.982 1.351l-0.278 7.311c-0.037 0.971-0.973 1.651-1.908 1.386l-7.039-1.995c-0.585-0.166-1.212 0.038-1.588 0.516l-4.522 5.752c-0.601 0.764-1.758 0.764-2.359 0l-4.522-5.752c-0.376-0.478-1.003-0.682-1.588-0.516l-7.039 1.995c-0.935 0.265-1.871-0.415-1.908-1.386l-0.278-7.311c-0.023-0.608-0.411-1.141-0.982-1.351l-6.867-2.524c-0.912-0.335-1.27-1.436-0.729-2.243l4.073-6.078c0.338-0.505 0.338-1.165 0-1.67l-4.073-6.078c-0.541-0.807-0.183-1.908 0.729-2.243l6.867-2.523c0.571-0.21 0.958-0.743 0.982-1.351l0.278-7.311c0.037-0.971 0.973-1.651 1.908-1.386l7.039 1.995c0.585 0.166 1.212-0.038 1.588-0.516l4.522-5.752z"
      />
<path
        stroke-linejoin="round"
        stroke-linecap="round"
        stroke-miterlimit="4"
        stroke-width="3.75"
        d="M22.5 30l5 5 10-10"
      />
</symbol>
<symbol id="icon-support" viewBox="0 0 70 70">
<path
        d="M24.375 50.002c0-0.002 0-0.005 0-0.007 0-3.796 3.077-6.873 6.873-6.873 2.526 0 4.733 1.362 5.927 3.392l0.018 0.032c5.225-2.305 7.182-5.922 7.182-12.798v-7.5c0-9.98-5.628-16.875-14.375-16.875s-14.375 6.897-14.375 16.875v8.75c-0.001 1.035-0.84 1.874-1.875 1.875h-2.5c-3.794-0.004-6.869-3.078-6.875-6.872v-2.501c0.004-3.796 3.079-6.872 6.874-6.877h1.196c1.893-8.928 8.37-15 17.555-15s15.66 6.072 17.553 15h1.195c3.795 0.006 6.869 3.080 6.875 6.874v2.501c-0.004 3.795-3.080 6.871-6.875 6.875h-0.773c-0.207 6.176-4.214 11.365-9.748 13.318l-0.102 0.032c-0.063 3.749-3.117 6.765-6.875 6.765-3.797 0-6.876-3.078-6.876-6.876 0-0.039 0-0.078 0.001-0.117l-0 0.006zM28.125 50.002c0 1.726 1.399 3.125 3.125 3.125s3.125-1.399 3.125-3.125c0-1.726-1.399-3.125-3.125-3.125v0c-1.725 0.001-3.124 1.4-3.125 3.125v0zM48.125 33.127h0.623c1.726 0 3.126-1.399 3.127-3.125v-2.5c0-1.726-1.399-3.126-3.125-3.127h-0.625zM8.125 27.502v2.5c0.003 1.724 1.401 3.121 3.125 3.123h0.625v-8.75h-0.625c-1.726 0.001-3.125 1.401-3.125 3.127v0z"
      />
</symbol>

<symbol id="icon-platform" viewBox="0 0 60 60">
<path
        d="M45.938 39.722h-31.875c-1.036 0-1.875-0.839-1.875-1.875v0-19.688c0 0 0 0 0 0 0-3.238 2.622-5.863 5.859-5.869h23.944c3.211 0.026 5.806 2.628 5.822 5.839v19.689c0 0.008 0 0.018 0 0.028 0 1.036-0.839 1.875-1.875 1.875-0 0-0 0-0 0v0zM15.938 35.972h28.125v-17.813c0 0 0 0 0 0 0-1.167-0.943-2.113-2.109-2.119h-23.944c-1.14 0.026-2.057 0.949-2.072 2.089v0.001z"
      />
<path
        d="M46.191 47.738h-32.381c-3.063-0.005-5.545-2.487-5.55-5.549v-4.341c0-1.036 0.839-1.875 1.875-1.875v0h39.731c1.036 0 1.875 0.839 1.875 1.875v0 4.341c-0.005 3.063-2.487 5.545-5.549 5.55h-0.001zM12.009 39.722v2.466c0 0.994 0.806 1.8 1.8 1.8v0h32.381c0.994 0 1.8-0.806 1.8-1.8v0-2.466z"
      />

</symbol>

<symbol id="icon-idea" viewBox="0 0 60 60">
<path
        d="M30.001 13.556c-8.559 0-15.522 6.963-15.522 15.522 0 3.503 1.149 6.812 3.32 9.57 0.429 0.546 0.879 1.068 1.356 1.621l0.026 0.030c1.459 1.692 2.967 3.443 3.53 5.504 0.127 0.472 0.145 1.378 0.138 2.076v1.186c0 1.085 0.88 1.965 1.965 1.965h10.289c1.085 0 1.965-0.88 1.965-1.965v-1.2c-0.007-0.911 0.041-1.576 0.136-1.921 0.566-2.048 2.238-4.014 3.726-5.764l0.064-0.075c0.429-0.505 0.835-0.981 1.205-1.451 2.174-2.759 3.324-6.070 3.324-9.576-0-8.559-6.963-15.522-15.521-15.522zM39.11 36.224c-0.324 0.412-0.705 0.86-1.109 1.334l-0.079 0.093c-1.738 2.045-3.708 4.362-4.507 7.248-0.113 0.41-0.238 1.023-0.27 2.201h-6.369c-0.027-1.252-0.155-1.893-0.271-2.326-0.799-2.925-2.766-5.207-4.346-7.041l-0.026-0.031c-0.447-0.518-0.868-1.007-1.243-1.484-1.622-2.059-2.479-4.528-2.479-7.14 0-6.392 5.2-11.592 11.592-11.592s11.591 5.2 11.591 11.592c0 2.615-0.858 5.085-2.482 7.145z"
      />
<path
        d="M35.102 51.588h-10.289c-1.085 0-1.965 0.88-1.965 1.965s0.88 1.965 1.965 1.965h10.289c1.085 0 1.965-0.88 1.965-1.965s-0.88-1.965-1.965-1.965z"
      />
<path
        d="M32.53 56.070h-5.144c-1.085 0-1.965 0.88-1.965 1.965s0.88 1.965 1.965 1.965h5.144c1.085 0 1.965-0.88 1.965-1.965s-0.88-1.965-1.965-1.965z"
      />
<path
        d="M57.113 27.113h-6.778c-1.085 0-1.965 0.88-1.965 1.965s0.88 1.965 1.965 1.965h6.778c1.085 0 1.965-0.88 1.965-1.965s-0.88-1.965-1.965-1.965z"
      />
<path
        d="M11.631 29.078c0-1.085-0.88-1.965-1.965-1.965h-6.779c-1.085 0-1.965 0.88-1.965 1.965s0.88 1.965 1.965 1.965h6.779c1.085 0 1.965-0.88 1.965-1.965z"
      />
<path
        d="M30 10.71c1.085 0 1.965-0.88 1.965-1.965v-6.781c0-1.085-0.88-1.965-1.965-1.965s-1.965 0.88-1.965 1.965v6.781c0 1.085 0.88 1.965 1.965 1.965z"
      />
<path
        d="M45.768 42.067c-0.767-0.767-2.011-0.768-2.779-0s-0.768 2.011-0 2.779l4.793 4.795c0.384 0.384 0.887 0.576 1.39 0.576s1.006-0.192 1.389-0.575c0.767-0.767 0.768-2.011 0-2.779l-4.793-4.795z"
      />
<path
        d="M14.23 16.088c0.384 0.384 0.887 0.576 1.39 0.576s1.006-0.192 1.389-0.575c0.768-0.767 0.768-2.011 0.001-2.779l-4.792-4.793c-0.767-0.768-2.011-0.768-2.779-0.001s-0.768 2.011-0.001 2.779l4.792 4.793z"
      />
<path
        d="M14.232 42.067l-4.794 4.795c-0.767 0.767-0.767 2.012 0 2.779 0.384 0.384 0.887 0.575 1.389 0.575s1.006-0.192 1.39-0.576l4.794-4.795c0.767-0.767 0.767-2.012-0-2.779s-2.012-0.767-2.779 0z"
      />
<path
        d="M44.379 16.664c0.503 0 1.006-0.192 1.39-0.576l4.792-4.793c0.767-0.767 0.767-2.012-0-2.779s-2.012-0.767-2.779 0l-4.792 4.793c-0.767 0.767-0.767 2.012 0 2.779 0.383 0.384 0.886 0.575 1.389 0.575z"
      />
</symbol>
</defs>
</svg>
