<svg width="29" height="11" viewBox="0 0 29 11" fill="none" xmlns="http://www.w3.org/2000/svg">
<g clip-path="url(#clip0_825_283)">
<path d="M9.77893 2.86475H10.3222L11.8356 6.50378H11.0983L10.7297 5.5553H9.39088L9.02222 6.50378H8.28491L9.77893 2.86475ZM10.4774 4.91653L10.07 3.85192L9.66251 4.91653H10.4774Z" fill="white"/>
<path d="M12.2236 2.86475H13.2326C14.9012 2.86475 15.1923 3.98742 15.1923 4.70361C15.1923 5.09074 15.0952 6.50378 13.252 6.50378H12.2236V2.86475ZM13.2326 5.865C13.6012 5.865 14.5132 5.82628 14.5132 4.72296C14.5132 3.58093 13.5624 3.54222 13.1938 3.54222H12.9027V5.865H13.2326Z" fill="white"/>
<path d="M15.6774 2.86475H16.7251C17.9475 2.86475 18.1027 3.67772 18.1027 4.02614C18.1027 4.60683 17.7147 5.1101 17.1132 5.16817L18.1415 6.50378H17.3072L16.3565 5.16817H16.3371V6.50378H15.658V2.86475H15.6774ZM16.3565 4.60683H16.7639C16.9191 4.60683 17.443 4.58749 17.443 4.06486C17.443 3.54224 16.9191 3.52287 16.7639 3.52287H16.3565V4.60683Z" fill="white"/>
<path d="M22.1967 4.72297C22.1967 5.76822 21.3624 6.61992 20.2759 6.61992C19.1893 6.61992 18.355 5.78758 18.355 4.72297C18.355 3.67772 19.1893 2.82605 20.2759 2.82605C21.3624 2.82605 22.1967 3.65836 22.1967 4.72297ZM21.5176 4.70362C21.5176 4.02614 20.9938 3.4648 20.2759 3.4648C19.558 3.4648 19.0341 4.02614 19.0341 4.70362C19.0341 5.40045 19.5774 5.96179 20.2759 5.96179C20.9938 5.94243 21.5176 5.3811 21.5176 4.70362Z" fill="white"/>
<path d="M6.30598 0H5.39404V7.7813H6.30598V0Z" fill="white"/>
<path d="M4.94782 3.58093H4.03589V10.1041H4.94782V3.58093Z" fill="white"/>
<path d="M3.60895 3.09705H2.69702V7.78131H3.60895V3.09705Z" fill="white"/>
<path d="M2.2508 1.78076H1.33887V5.36171H2.2508V1.78076Z" fill="white"/>
<path d="M0.911929 4.14221H0V6.58115H0.911929V4.14221Z" fill="white"/>
<path d="M23.1292 2.87207H24.9918V3.53019H23.8082V4.36252H24.9336V5.02064H23.8082V6.51109H23.1292V2.87207Z" fill="white"/>
<path d="M26.447 4.69159L25.1858 2.87207H25.9813L26.8544 4.13024L27.7276 2.87207H28.5231L27.2619 4.69159L28.5231 6.51109H27.7082L26.835 5.25292L25.9619 6.51109H25.1858L26.447 4.69159Z" fill="white"/>
</g>
<defs>
<clipPath id="clip0_825_283">
<rect width="28.5088" height="10.3687" fill="white"/>
</clipPath>
</defs>
</svg>
